<?xml version="1.0" encoding="UTF-8" standalone="no"?>
<!DOCTYPE svg PUBLIC "-//W3C//DTD SVG 1.1//EN"
 "http://www.w3.org/Graphics/SVG/1.1/DTD/svg11.dtd">
<!-- Generated by graphviz version 10.0.1 (20240210.2158)
 -->
<!-- Pages: 1 -->
<svg width="141pt" height="496pt"
 viewBox="0.00 0.00 141.00 496.22" xmlns="http://www.w3.org/2000/svg" xmlns:xlink="http://www.w3.org/1999/xlink">
<g id="graph0" class="graph" transform="scale(1 1) rotate(0) translate(4 492.22)">
<polygon fill="white" stroke="none" points="-4,4 -4,-492.22 137,-492.22 137,4 -4,4"/>
<!-- 0 -->
<g id="node1" class="node">
<title>0</title>
<ellipse fill="#cdb38b" stroke="black" cx="76.5" cy="-463.57" rx="20.64" ry="20.64"/>
<ellipse fill="none" stroke="black" cx="76.5" cy="-463.57" rx="24.64" ry="24.64"/>
<text text-anchor="middle" x="76.5" y="-458.52" font-family="Times,serif" font-size="14.00">P0</text>
</g>
<!-- 1 -->
<g id="node2" class="node">
<title>1</title>
<ellipse fill="lightsteelblue" stroke="black" cx="101.5" cy="-382.29" rx="20.64" ry="20.64"/>
<text text-anchor="middle" x="101.5" y="-377.24" font-family="Times,serif" font-size="14.00">P1</text>
</g>
<!-- 0&#45;&gt;1 -->
<g id="edge1" class="edge">
<title>0&#45;&gt;1</title>
<path fill="none" stroke="black" d="M83.73,-439.64C86.32,-431.44 89.27,-422.06 92.02,-413.35"/>
<polygon fill="black" stroke="black" points="95.34,-414.45 95.01,-403.86 88.67,-412.35 95.34,-414.45"/>
</g>
<!-- 2 -->
<g id="node3" class="node">
<title>2</title>
<ellipse fill="lightsteelblue" stroke="black" cx="52.5" cy="-305" rx="20.64" ry="20.64"/>
<text text-anchor="middle" x="52.5" y="-299.95" font-family="Times,serif" font-size="14.00">P0</text>
</g>
<!-- 1&#45;&gt;2 -->
<g id="edge2" class="edge">
<title>1&#45;&gt;2</title>
<path fill="none" stroke="black" d="M90.63,-364.58C84.45,-355.09 76.59,-343.01 69.6,-332.28"/>
<polygon fill="black" stroke="black" points="72.73,-330.66 64.34,-324.19 66.86,-334.48 72.73,-330.66"/>
</g>
<!-- 2&#45;&gt;0 -->
<g id="edge3" class="edge">
<title>2&#45;&gt;0</title>
<path fill="none" stroke="black" d="M55.5,-325.54C59.4,-351.01 66.3,-396.01 71.12,-427.47"/>
<polygon fill="black" stroke="black" points="67.65,-427.94 72.63,-437.3 74.57,-426.88 67.65,-427.94"/>
</g>
<!-- 3 -->
<g id="node4" class="node">
<title>3</title>
<ellipse fill="lightsteelblue" stroke="black" cx="101.5" cy="-227.71" rx="20.64" ry="20.64"/>
<text text-anchor="middle" x="101.5" y="-222.66" font-family="Times,serif" font-size="14.00">P3</text>
</g>
<!-- 2&#45;&gt;3 -->
<g id="edge4" class="edge">
<title>2&#45;&gt;3</title>
<path fill="none" stroke="black" d="M63.37,-287.29C69.55,-277.81 77.41,-265.72 84.4,-254.99"/>
<polygon fill="black" stroke="black" points="87.14,-257.2 89.66,-246.91 81.27,-253.38 87.14,-257.2"/>
</g>
<!-- 4 -->
<g id="node5" class="node">
<title>4</title>
<text text-anchor="middle" x="31.5" y="-222.66" font-family="Times,serif" font-size="14.00">[1, 2, &#45;1, 4]</text>
</g>
<!-- 2&#45;&gt;4 -->
<g id="edge5" class="edge">
<title>2&#45;&gt;4</title>
<path fill="none" stroke="black" d="M47.09,-284.61C43.81,-272.84 39.65,-257.92 36.45,-246.46"/>
<polygon fill="black" stroke="black" points="39.91,-245.84 33.85,-237.15 33.17,-247.72 39.91,-245.84"/>
</g>
<!-- 3&#45;&gt;1 -->
<g id="edge6" class="edge">
<title>3&#45;&gt;1</title>
<path fill="none" stroke="black" d="M101.5,-248.67C101.5,-274.48 101.5,-319.74 101.5,-350.11"/>
<polygon fill="black" stroke="black" points="98,-349.83 101.5,-359.83 105,-349.83 98,-349.83"/>
</g>
<!-- 5 -->
<g id="node6" class="node">
<title>5</title>
<ellipse fill="lightsteelblue" stroke="black" cx="101.5" cy="-150.43" rx="20.64" ry="20.64"/>
<text text-anchor="middle" x="101.5" y="-145.38" font-family="Times,serif" font-size="14.00">P0</text>
</g>
<!-- 3&#45;&gt;5 -->
<g id="edge7" class="edge">
<title>3&#45;&gt;5</title>
<path fill="none" stroke="black" d="M101.5,-206.93C101.5,-199.56 101.5,-190.99 101.5,-182.83"/>
<polygon fill="black" stroke="black" points="105,-182.85 101.5,-172.85 98,-182.85 105,-182.85"/>
</g>
<!-- 6 -->
<g id="node7" class="node">
<title>6</title>
<ellipse fill="lightsteelblue" stroke="black" cx="101.5" cy="-73.14" rx="20.64" ry="20.64"/>
<text text-anchor="middle" x="101.5" y="-68.09" font-family="Times,serif" font-size="14.00">P1</text>
</g>
<!-- 5&#45;&gt;6 -->
<g id="edge8" class="edge">
<title>5&#45;&gt;6</title>
<path fill="none" stroke="black" d="M101.5,-129.65C101.5,-122.27 101.5,-113.7 101.5,-105.54"/>
<polygon fill="black" stroke="black" points="105,-105.57 101.5,-95.57 98,-105.57 105,-105.57"/>
</g>
<!-- 7 -->
<g id="node8" class="node">
<title>7</title>
<text text-anchor="middle" x="101.5" y="-3.2" font-family="Times,serif" font-size="14.00">[2, 1, 9, &#45;6]</text>
</g>
<!-- 6&#45;&gt;7 -->
<g id="edge9" class="edge">
<title>6&#45;&gt;7</title>
<path fill="none" stroke="black" d="M101.5,-52.24C101.5,-44.4 101.5,-35.45 101.5,-27.76"/>
<polygon fill="black" stroke="black" points="105,-27.92 101.5,-17.92 98,-27.92 105,-27.92"/>
</g>
</g>
</svg>
